# xmcd
#
# Track frame offsets:
#	150
#	20203
#	33648
#	49606
#	69312
#	84387
#	104068
#	127714
#	146409
#	165543
#	179358
#	196080
#	213190
#	229279
#	252937
#	269986
#	284034
#	298276
#
# Disc length: 4186 seconds
#
# Revision: 1
# Processed by: cddbd v1.5.2PL0 Copyright (c) Steve Scherf et al.
# Submitted via: audiograbber 1.83.01
#
DISCID=19105812
DTITLE=Rosanne Cash - The Essential Rosanne Cash - CD 2
DYEAR=2011
DGENRE=Country
TTITLE0=The Real Me
TTITLE1=On The Surface
TTITLE2=What We Really Want
TTITLE3=I Want A Cure
TTITLE4=Mirror Image
TTITLE5=The Wheel
TTITLE6=Seventh Avenue
TTITLE7=Sleeping In Paris
TTITLE8=A Lover Is Forever (Live)
TTITLE9=Western Wall
TTITLE10=September When It Comes (Feat. Johnny Cash)
TTITLE11=Black Cadillac
TTITLE12=House On The Lake
TTITLE13=The World Unseen
TTITLE14=The Good Intent
TTITLE15=500 Miles
TTITLE16=Sea Of Heartbreak (Feat. Bruce Springsteen)
TTITLE17=Sweet Memories (Feat. Chris Thile)
EXTD=
EXTT0=
EXTT1=
EXTT2=
EXTT3=
EXTT4=
EXTT5=
EXTT6=
EXTT7=
EXTT8=
EXTT9=
EXTT10=
EXTT11=
EXTT12=
EXTT13=
EXTT14=
EXTT15=
EXTT16=
EXTT17=
PLAYORDER=
